<svg xmlns="http://www.w3.org/2000/svg" version="1.1" xmlns:xlink="http://www.w3.org/1999/xlink" xmlns:svgjs="http://svgjs.com/svgjs" width="1400" height="900" preserveAspectRatio="none" viewBox="0 0 1400 900"><g mask="url(&quot;#SvgjsMask1234&quot;)" fill="none"><rect width="1400" height="900" x="0" y="0" fill="rgba(0, 1, 2, 1)"></rect><path d="M-86.15 821.74L-86.15 821.74" stroke="rgba(35, 100, 170, 1)" stroke-width="1.5"></path><path d="M-86.15 821.74L56.77 828.92" stroke="rgba(35, 100, 170, 1)" stroke-width="1.5"></path><path d="M-86.15 821.74L-64.72 970.71" stroke="rgba(35, 100, 170, 1)" stroke-width="1.5"></path><path d="M-86.15 821.74L91.23 946.96" stroke="rgba(35, 100, 170, 1)" stroke-width="1.5"></path><path d="M-64.72 970.71L-64.72 970.71" stroke="rgba(35, 100, 170, 1)" stroke-width="1.5"></path><path d="M-64.72 970.71L91.23 946.96" stroke="rgba(35, 100, 170, 1)" stroke-width="1.5"></path><path d="M-64.72 970.71L56.77 828.92" stroke="rgba(35, 100, 170, 1)" stroke-width="1.5"></path><path d="M-64.72 970.71L197.5 957.5" stroke="rgba(35, 100, 170, 1)" stroke-width="1.5"></path><path d="M111.72 644.22L111.72 644.22" stroke="rgba(35, 100, 170, 1)" stroke-width="1.5"></path><path d="M111.72 644.22L253.45 692.07" stroke="rgba(35, 100, 170, 1)" stroke-width="1.5"></path><path d="M111.72 644.22L56.77 828.92" stroke="rgba(35, 100, 170, 1)" stroke-width="1.5"></path><path d="M111.72 644.22L234.31 845.72" stroke="rgba(35, 100, 170, 1)" stroke-width="1.5"></path><path d="M56.77 828.92L56.77 828.92" stroke="rgba(35, 100, 170, 1)" stroke-width="1.5"></path><path d="M56.77 828.92L91.23 946.96" stroke="rgba(35, 100, 170, 1)" stroke-width="1.5"></path><path d="M56.77 828.92L234.31 845.72" stroke="rgba(35, 100, 170, 1)" stroke-width="1.5"></path><path d="M91.23 946.96L91.23 946.96" stroke="rgba(35, 100, 170, 1)" stroke-width="1.5"></path><path d="M91.23 946.96L197.5 957.5" stroke="rgba(35, 100, 170, 1)" stroke-width="1.5"></path><path d="M91.23 946.96L234.31 845.72" stroke="rgba(35, 100, 170, 1)" stroke-width="1.5"></path><path d="M91.23 946.96L382.88 1008.51" stroke="rgba(35, 100, 170, 1)" stroke-width="1.5"></path><path d="M253.45 692.07L253.45 692.07" stroke="rgba(35, 100, 170, 1)" stroke-width="1.5"></path><path d="M253.45 692.07L234.31 845.72" stroke="rgba(35, 100, 170, 1)" stroke-width="1.5"></path><path d="M234.31 845.72L234.31 845.72" stroke="rgba(35, 100, 170, 1)" stroke-width="1.5"></path><path d="M234.31 845.72L197.5 957.5" stroke="rgba(35, 100, 170, 1)" stroke-width="1.5"></path><path d="M234.31 845.72L382.88 1008.51" stroke="rgba(35, 100, 170, 1)" stroke-width="1.5"></path><path d="M234.31 845.72L412.02 703.04" stroke="rgba(35, 100, 170, 1)" stroke-width="1.5"></path><path d="M197.5 957.5L197.5 957.5" stroke="rgba(35, 100, 170, 1)" stroke-width="1.5"></path><path d="M412.02 703.04L412.02 703.04" stroke="rgba(35, 100, 170, 1)" stroke-width="1.5"></path><path d="M412.02 703.04L503.65 664.11" stroke="rgba(35, 100, 170, 1)" stroke-width="1.5"></path><path d="M412.02 703.04L511.56 824.08" stroke="rgba(35, 100, 170, 1)" stroke-width="1.5"></path><path d="M412.02 703.04L253.45 692.07" stroke="rgba(35, 100, 170, 1)" stroke-width="1.5"></path><path d="M412.02 703.04L526.4 488.1" stroke="rgba(35, 100, 170, 1)" stroke-width="1.5"></path><path d="M382.88 1008.51L382.88 1008.51" stroke="rgba(35, 100, 170, 1)" stroke-width="1.5"></path><path d="M382.88 1008.51L496.56 953.75" stroke="rgba(35, 100, 170, 1)" stroke-width="1.5"></path><path d="M382.88 1008.51L197.5 957.5" stroke="rgba(35, 100, 170, 1)" stroke-width="1.5"></path><path d="M382.88 1008.51L511.56 824.08" stroke="rgba(35, 100, 170, 1)" stroke-width="1.5"></path><path d="M526.4 488.1L526.4 488.1" stroke="rgba(35, 100, 170, 1)" stroke-width="1.5"></path><path d="M526.4 488.1L668.18 391.72" stroke="rgba(35, 100, 170, 1)" stroke-width="1.5"></path><path d="M526.4 488.1L503.65 664.11" stroke="rgba(35, 100, 170, 1)" stroke-width="1.5"></path><path d="M503.65 664.11L503.65 664.11" stroke="rgba(35, 100, 170, 1)" stroke-width="1.5"></path><path d="M503.65 664.11L511.56 824.08" stroke="rgba(35, 100, 170, 1)" stroke-width="1.5"></path><path d="M503.65 664.11L702.57 637.73" stroke="rgba(35, 100, 170, 1)" stroke-width="1.5"></path><path d="M503.65 664.11L660.16 794.55" stroke="rgba(35, 100, 170, 1)" stroke-width="1.5"></path><path d="M503.65 664.11L253.45 692.07" stroke="rgba(35, 100, 170, 1)" stroke-width="1.5"></path><path d="M511.56 824.08L511.56 824.08" stroke="rgba(35, 100, 170, 1)" stroke-width="1.5"></path><path d="M511.56 824.08L496.56 953.75" stroke="rgba(35, 100, 170, 1)" stroke-width="1.5"></path><path d="M511.56 824.08L660.16 794.55" stroke="rgba(35, 100, 170, 1)" stroke-width="1.5"></path><path d="M511.56 824.08L658.03 976.94" stroke="rgba(35, 100, 170, 1)" stroke-width="1.5"></path><path d="M496.56 953.75L496.56 953.75" stroke="rgba(35, 100, 170, 1)" stroke-width="1.5"></path><path d="M668.18 391.72L668.18 391.72" stroke="rgba(35, 100, 170, 1)" stroke-width="1.5"></path><path d="M668.18 391.72L707.23 509.11" stroke="rgba(35, 100, 170, 1)" stroke-width="1.5"></path><path d="M668.18 391.72L807.06 512.47" stroke="rgba(35, 100, 170, 1)" stroke-width="1.5"></path><path d="M668.18 391.72L702.57 637.73" stroke="rgba(35, 100, 170, 1)" stroke-width="1.5"></path><path d="M707.23 509.11L707.23 509.11" stroke="rgba(35, 100, 170, 1)" stroke-width="1.5"></path><path d="M707.23 509.11L807.06 512.47" stroke="rgba(35, 100, 170, 1)" stroke-width="1.5"></path><path d="M707.23 509.11L702.57 637.73" stroke="rgba(35, 100, 170, 1)" stroke-width="1.5"></path><path d="M702.57 637.73L702.57 637.73" stroke="rgba(35, 100, 170, 1)" stroke-width="1.5"></path><path d="M702.57 637.73L791.5 701.3" stroke="rgba(35, 100, 170, 1)" stroke-width="1.5"></path><path d="M702.57 637.73L660.16 794.55" stroke="rgba(35, 100, 170, 1)" stroke-width="1.5"></path><path d="M702.57 637.73L807.06 512.47" stroke="rgba(35, 100, 170, 1)" stroke-width="1.5"></path><path d="M702.57 637.73L810.71 839.64" stroke="rgba(35, 100, 170, 1)" stroke-width="1.5"></path><path d="M660.16 794.55L660.16 794.55" stroke="rgba(35, 100, 170, 1)" stroke-width="1.5"></path><path d="M660.16 794.55L810.71 839.64" stroke="rgba(35, 100, 170, 1)" stroke-width="1.5"></path><path d="M660.16 794.55L791.5 701.3" stroke="rgba(35, 100, 170, 1)" stroke-width="1.5"></path><path d="M660.16 794.55L658.03 976.94" stroke="rgba(35, 100, 170, 1)" stroke-width="1.5"></path><path d="M658.03 976.94L658.03 976.94" stroke="rgba(35, 100, 170, 1)" stroke-width="1.5"></path><path d="M658.03 976.94L496.56 953.75" stroke="rgba(35, 100, 170, 1)" stroke-width="1.5"></path><path d="M847.31 -42.22L847.31 -42.22" stroke="rgba(35, 100, 170, 1)" stroke-width="1.5"></path><path d="M847.31 -42.22L850.99 82.42" stroke="rgba(35, 100, 170, 1)" stroke-width="1.5"></path><path d="M847.31 -42.22L986.46 -58.33" stroke="rgba(35, 100, 170, 1)" stroke-width="1.5"></path><path d="M847.31 -42.22L986.74 43.93" stroke="rgba(35, 100, 170, 1)" stroke-width="1.5"></path><path d="M847.31 -42.22L1097.25 -72.25" stroke="rgba(35, 100, 170, 1)" stroke-width="1.5"></path><path d="M847.31 -42.22L856.83 221.03" stroke="rgba(35, 100, 170, 1)" stroke-width="1.5"></path><path d="M847.31 -42.22L943.57 243.34" stroke="rgba(35, 100, 170, 1)" stroke-width="1.5"></path><path d="M850.99 82.42L850.99 82.42" stroke="rgba(35, 100, 170, 1)" stroke-width="1.5"></path><path d="M850.99 82.42L856.83 221.03" stroke="rgba(35, 100, 170, 1)" stroke-width="1.5"></path><path d="M850.99 82.42L986.74 43.93" stroke="rgba(35, 100, 170, 1)" stroke-width="1.5"></path><path d="M850.99 82.42L943.57 243.34" stroke="rgba(35, 100, 170, 1)" stroke-width="1.5"></path><path d="M856.83 221.03L856.83 221.03" stroke="rgba(35, 100, 170, 1)" stroke-width="1.5"></path><path d="M856.83 221.03L943.57 243.34" stroke="rgba(35, 100, 170, 1)" stroke-width="1.5"></path><path d="M807.06 512.47L807.06 512.47" stroke="rgba(35, 100, 170, 1)" stroke-width="1.5"></path><path d="M807.06 512.47L791.5 701.3" stroke="rgba(35, 100, 170, 1)" stroke-width="1.5"></path><path d="M807.06 512.47L997.92 390.11" stroke="rgba(35, 100, 170, 1)" stroke-width="1.5"></path><path d="M791.5 701.3L791.5 701.3" stroke="rgba(35, 100, 170, 1)" stroke-width="1.5"></path><path d="M791.5 701.3L810.71 839.64" stroke="rgba(35, 100, 170, 1)" stroke-width="1.5"></path><path d="M810.71 839.64L810.71 839.64" stroke="rgba(35, 100, 170, 1)" stroke-width="1.5"></path><path d="M810.71 839.64L851.26 973.5" stroke="rgba(35, 100, 170, 1)" stroke-width="1.5"></path><path d="M851.26 973.5L851.26 973.5" stroke="rgba(35, 100, 170, 1)" stroke-width="1.5"></path><path d="M851.26 973.5L942.23 1001.69" stroke="rgba(35, 100, 170, 1)" stroke-width="1.5"></path><path d="M851.26 973.5L658.03 976.94" stroke="rgba(35, 100, 170, 1)" stroke-width="1.5"></path><path d="M851.26 973.5L976.38 816.44" stroke="rgba(35, 100, 170, 1)" stroke-width="1.5"></path><path d="M851.26 973.5L660.16 794.55" stroke="rgba(35, 100, 170, 1)" stroke-width="1.5"></path><path d="M851.26 973.5L791.5 701.3" stroke="rgba(35, 100, 170, 1)" stroke-width="1.5"></path><path d="M986.46 -58.33L986.46 -58.33" stroke="rgba(35, 100, 170, 1)" stroke-width="1.5"></path><path d="M986.46 -58.33L986.74 43.93" stroke="rgba(35, 100, 170, 1)" stroke-width="1.5"></path><path d="M986.46 -58.33L1097.25 -72.25" stroke="rgba(35, 100, 170, 1)" stroke-width="1.5"></path><path d="M986.46 -58.33L850.99 82.42" stroke="rgba(35, 100, 170, 1)" stroke-width="1.5"></path><path d="M986.46 -58.33L1138.3 93.45" stroke="rgba(35, 100, 170, 1)" stroke-width="1.5"></path><path d="M986.74 43.93L986.74 43.93" stroke="rgba(35, 100, 170, 1)" stroke-width="1.5"></path><path d="M943.57 243.34L943.57 243.34" stroke="rgba(35, 100, 170, 1)" stroke-width="1.5"></path><path d="M943.57 243.34L997.92 390.11" stroke="rgba(35, 100, 170, 1)" stroke-width="1.5"></path><path d="M943.57 243.34L986.74 43.93" stroke="rgba(35, 100, 170, 1)" stroke-width="1.5"></path><path d="M943.57 243.34L1150.9 255.09" stroke="rgba(35, 100, 170, 1)" stroke-width="1.5"></path><path d="M997.92 390.11L997.92 390.11" stroke="rgba(35, 100, 170, 1)" stroke-width="1.5"></path><path d="M997.92 390.11L1120.09 411.25" stroke="rgba(35, 100, 170, 1)" stroke-width="1.5"></path><path d="M997.92 390.11L1088.47 512.28" stroke="rgba(35, 100, 170, 1)" stroke-width="1.5"></path><path d="M997.92 390.11L1150.9 255.09" stroke="rgba(35, 100, 170, 1)" stroke-width="1.5"></path><path d="M997.92 390.11L856.83 221.03" stroke="rgba(35, 100, 170, 1)" stroke-width="1.5"></path><path d="M965.21 708.41L965.21 708.41" stroke="rgba(35, 100, 170, 1)" stroke-width="1.5"></path><path d="M965.21 708.41L976.38 816.44" stroke="rgba(35, 100, 170, 1)" stroke-width="1.5"></path><path d="M965.21 708.41L1099.07 655.59" stroke="rgba(35, 100, 170, 1)" stroke-width="1.5"></path><path d="M965.21 708.41L791.5 701.3" stroke="rgba(35, 100, 170, 1)" stroke-width="1.5"></path><path d="M965.21 708.41L810.71 839.64" stroke="rgba(35, 100, 170, 1)" stroke-width="1.5"></path><path d="M965.21 708.41L1110.66 861.19" stroke="rgba(35, 100, 170, 1)" stroke-width="1.5"></path><path d="M976.38 816.44L976.38 816.44" stroke="rgba(35, 100, 170, 1)" stroke-width="1.5"></path><path d="M976.38 816.44L1110.66 861.19" stroke="rgba(35, 100, 170, 1)" stroke-width="1.5"></path><path d="M976.38 816.44L810.71 839.64" stroke="rgba(35, 100, 170, 1)" stroke-width="1.5"></path><path d="M976.38 816.44L942.23 1001.69" stroke="rgba(35, 100, 170, 1)" stroke-width="1.5"></path><path d="M976.38 816.44L1099.07 655.59" stroke="rgba(35, 100, 170, 1)" stroke-width="1.5"></path><path d="M942.23 1001.69L942.23 1001.69" stroke="rgba(35, 100, 170, 1)" stroke-width="1.5"></path><path d="M942.23 1001.69L1145.89 968.93" stroke="rgba(35, 100, 170, 1)" stroke-width="1.5"></path><path d="M1097.25 -72.25L1097.25 -72.25" stroke="rgba(35, 100, 170, 1)" stroke-width="1.5"></path><path d="M1097.25 -72.25L986.74 43.93" stroke="rgba(35, 100, 170, 1)" stroke-width="1.5"></path><path d="M1138.3 93.45L1138.3 93.45" stroke="rgba(35, 100, 170, 1)" stroke-width="1.5"></path><path d="M1138.3 93.45L1265.87 43.61" stroke="rgba(35, 100, 170, 1)" stroke-width="1.5"></path><path d="M1138.3 93.45L986.74 43.93" stroke="rgba(35, 100, 170, 1)" stroke-width="1.5"></path><path d="M1138.3 93.45L1150.9 255.09" stroke="rgba(35, 100, 170, 1)" stroke-width="1.5"></path><path d="M1138.3 93.45L1097.25 -72.25" stroke="rgba(35, 100, 170, 1)" stroke-width="1.5"></path><path d="M1150.9 255.09L1150.9 255.09" stroke="rgba(35, 100, 170, 1)" stroke-width="1.5"></path><path d="M1150.9 255.09L1238.37 259.35" stroke="rgba(35, 100, 170, 1)" stroke-width="1.5"></path><path d="M1150.9 255.09L1262.55 342.24" stroke="rgba(35, 100, 170, 1)" stroke-width="1.5"></path><path d="M1150.9 255.09L1120.09 411.25" stroke="rgba(35, 100, 170, 1)" stroke-width="1.5"></path><path d="M1120.09 411.25L1120.09 411.25" stroke="rgba(35, 100, 170, 1)" stroke-width="1.5"></path><path d="M1120.09 411.25L1088.47 512.28" stroke="rgba(35, 100, 170, 1)" stroke-width="1.5"></path><path d="M1120.09 411.25L1262.55 342.24" stroke="rgba(35, 100, 170, 1)" stroke-width="1.5"></path><path d="M1120.09 411.25L1238.37 259.35" stroke="rgba(35, 100, 170, 1)" stroke-width="1.5"></path><path d="M1120.09 411.25L1273.83 552.52" stroke="rgba(35, 100, 170, 1)" stroke-width="1.5"></path><path d="M1088.47 512.28L1088.47 512.28" stroke="rgba(35, 100, 170, 1)" stroke-width="1.5"></path><path d="M1088.47 512.28L1099.07 655.59" stroke="rgba(35, 100, 170, 1)" stroke-width="1.5"></path><path d="M1099.07 655.59L1099.07 655.59" stroke="rgba(35, 100, 170, 1)" stroke-width="1.5"></path><path d="M1110.66 861.19L1110.66 861.19" stroke="rgba(35, 100, 170, 1)" stroke-width="1.5"></path><path d="M1110.66 861.19L1145.89 968.93" stroke="rgba(35, 100, 170, 1)" stroke-width="1.5"></path><path d="M1110.66 861.19L1297.19 851.88" stroke="rgba(35, 100, 170, 1)" stroke-width="1.5"></path><path d="M1145.89 968.93L1145.89 968.93" stroke="rgba(35, 100, 170, 1)" stroke-width="1.5"></path><path d="M1145.89 968.93L1269.9 983.32" stroke="rgba(35, 100, 170, 1)" stroke-width="1.5"></path><path d="M1260.51 -107.05L1260.51 -107.05" stroke="rgba(35, 100, 170, 1)" stroke-width="1.5"></path><path d="M1260.51 -107.05L1265.87 43.61" stroke="rgba(35, 100, 170, 1)" stroke-width="1.5"></path><path d="M1260.51 -107.05L1097.25 -72.25" stroke="rgba(35, 100, 170, 1)" stroke-width="1.5"></path><path d="M1260.51 -107.05L1438.16 -78" stroke="rgba(35, 100, 170, 1)" stroke-width="1.5"></path><path d="M1260.51 -107.05L1138.3 93.45" stroke="rgba(35, 100, 170, 1)" stroke-width="1.5"></path><path d="M1260.51 -107.05L986.46 -58.33" stroke="rgba(35, 100, 170, 1)" stroke-width="1.5"></path><path d="M1265.87 43.61L1265.87 43.61" stroke="rgba(35, 100, 170, 1)" stroke-width="1.5"></path><path d="M1238.37 259.35L1238.37 259.35" stroke="rgba(35, 100, 170, 1)" stroke-width="1.5"></path><path d="M1238.37 259.35L1262.55 342.24" stroke="rgba(35, 100, 170, 1)" stroke-width="1.5"></path><path d="M1238.37 259.35L1406.26 251.11" stroke="rgba(35, 100, 170, 1)" stroke-width="1.5"></path><path d="M1262.55 342.24L1262.55 342.24" stroke="rgba(35, 100, 170, 1)" stroke-width="1.5"></path><path d="M1262.55 342.24L1416.3 368.84" stroke="rgba(35, 100, 170, 1)" stroke-width="1.5"></path><path d="M1262.55 342.24L1406.26 251.11" stroke="rgba(35, 100, 170, 1)" stroke-width="1.5"></path><path d="M1262.55 342.24L1273.83 552.52" stroke="rgba(35, 100, 170, 1)" stroke-width="1.5"></path><path d="M1273.83 552.52L1273.83 552.52" stroke="rgba(35, 100, 170, 1)" stroke-width="1.5"></path><path d="M1273.83 552.52L1406.61 551.54" stroke="rgba(35, 100, 170, 1)" stroke-width="1.5"></path><path d="M1273.83 552.52L1281.93 704.92" stroke="rgba(35, 100, 170, 1)" stroke-width="1.5"></path><path d="M1281.93 704.92L1281.93 704.92" stroke="rgba(35, 100, 170, 1)" stroke-width="1.5"></path><path d="M1281.93 704.92L1399.36 655.49" stroke="rgba(35, 100, 170, 1)" stroke-width="1.5"></path><path d="M1281.93 704.92L1297.19 851.88" stroke="rgba(35, 100, 170, 1)" stroke-width="1.5"></path><path d="M1281.93 704.92L1099.07 655.59" stroke="rgba(35, 100, 170, 1)" stroke-width="1.5"></path><path d="M1281.93 704.92L1406.61 551.54" stroke="rgba(35, 100, 170, 1)" stroke-width="1.5"></path><path d="M1297.19 851.88L1297.19 851.88" stroke="rgba(35, 100, 170, 1)" stroke-width="1.5"></path><path d="M1297.19 851.88L1269.9 983.32" stroke="rgba(35, 100, 170, 1)" stroke-width="1.5"></path><path d="M1297.19 851.88L1423.16 944.59" stroke="rgba(35, 100, 170, 1)" stroke-width="1.5"></path><path d="M1297.19 851.88L1145.89 968.93" stroke="rgba(35, 100, 170, 1)" stroke-width="1.5"></path><path d="M1297.19 851.88L1399.36 655.49" stroke="rgba(35, 100, 170, 1)" stroke-width="1.5"></path><path d="M1269.9 983.32L1269.9 983.32" stroke="rgba(35, 100, 170, 1)" stroke-width="1.5"></path><path d="M1269.9 983.32L1423.16 944.59" stroke="rgba(35, 100, 170, 1)" stroke-width="1.5"></path><path d="M1438.16 -78L1438.16 -78" stroke="rgba(35, 100, 170, 1)" stroke-width="1.5"></path><path d="M1438.16 -78L1562.76 -55.84" stroke="rgba(35, 100, 170, 1)" stroke-width="1.5"></path><path d="M1438.16 -78L1459.88 92.23" stroke="rgba(35, 100, 170, 1)" stroke-width="1.5"></path><path d="M1459.88 92.23L1459.88 92.23" stroke="rgba(35, 100, 170, 1)" stroke-width="1.5"></path><path d="M1459.88 92.23L1593.07 108.56" stroke="rgba(35, 100, 170, 1)" stroke-width="1.5"></path><path d="M1459.88 92.23L1557.18 222.89" stroke="rgba(35, 100, 170, 1)" stroke-width="1.5"></path><path d="M1406.26 251.11L1406.26 251.11" stroke="rgba(35, 100, 170, 1)" stroke-width="1.5"></path><path d="M1406.26 251.11L1416.3 368.84" stroke="rgba(35, 100, 170, 1)" stroke-width="1.5"></path><path d="M1406.26 251.11L1557.18 222.89" stroke="rgba(35, 100, 170, 1)" stroke-width="1.5"></path><path d="M1416.3 368.84L1416.3 368.84" stroke="rgba(35, 100, 170, 1)" stroke-width="1.5"></path><path d="M1406.61 551.54L1406.61 551.54" stroke="rgba(35, 100, 170, 1)" stroke-width="1.5"></path><path d="M1406.61 551.54L1399.36 655.49" stroke="rgba(35, 100, 170, 1)" stroke-width="1.5"></path><path d="M1399.36 655.49L1399.36 655.49" stroke="rgba(35, 100, 170, 1)" stroke-width="1.5"></path><path d="M1399.36 655.49L1273.83 552.52" stroke="rgba(35, 100, 170, 1)" stroke-width="1.5"></path><path d="M1399.36 655.49L1563.11 674.88" stroke="rgba(35, 100, 170, 1)" stroke-width="1.5"></path><path d="M1399.36 655.49L1568.42 501.25" stroke="rgba(35, 100, 170, 1)" stroke-width="1.5"></path><path d="M1423.16 944.59L1423.16 944.59" stroke="rgba(35, 100, 170, 1)" stroke-width="1.5"></path><path d="M1423.16 944.59L1608.49 978.57" stroke="rgba(35, 100, 170, 1)" stroke-width="1.5"></path><path d="M1562.76 -55.84L1562.76 -55.84" stroke="rgba(35, 100, 170, 1)" stroke-width="1.5"></path><path d="M1562.76 -55.84L1593.07 108.56" stroke="rgba(35, 100, 170, 1)" stroke-width="1.5"></path><path d="M1562.76 -55.84L1459.88 92.23" stroke="rgba(35, 100, 170, 1)" stroke-width="1.5"></path><path d="M1562.76 -55.84L1557.18 222.89" stroke="rgba(35, 100, 170, 1)" stroke-width="1.5"></path><path d="M1562.76 -55.84L1260.51 -107.05" stroke="rgba(35, 100, 170, 1)" stroke-width="1.5"></path><path d="M1593.07 108.56L1593.07 108.56" stroke="rgba(35, 100, 170, 1)" stroke-width="1.5"></path><path d="M1593.07 108.56L1557.18 222.89" stroke="rgba(35, 100, 170, 1)" stroke-width="1.5"></path><path d="M1557.18 222.89L1557.18 222.89" stroke="rgba(35, 100, 170, 1)" stroke-width="1.5"></path><path d="M1557.18 222.89L1416.3 368.84" stroke="rgba(35, 100, 170, 1)" stroke-width="1.5"></path><path d="M1557.18 222.89L1568.42 501.25" stroke="rgba(35, 100, 170, 1)" stroke-width="1.5"></path><path d="M1568.42 501.25L1568.42 501.25" stroke="rgba(35, 100, 170, 1)" stroke-width="1.5"></path><path d="M1568.42 501.25L1406.61 551.54" stroke="rgba(35, 100, 170, 1)" stroke-width="1.5"></path><path d="M1568.42 501.25L1563.11 674.88" stroke="rgba(35, 100, 170, 1)" stroke-width="1.5"></path><path d="M1568.42 501.25L1416.3 368.84" stroke="rgba(35, 100, 170, 1)" stroke-width="1.5"></path><path d="M1568.42 501.25L1406.26 251.11" stroke="rgba(35, 100, 170, 1)" stroke-width="1.5"></path><path d="M1563.11 674.88L1563.11 674.88" stroke="rgba(35, 100, 170, 1)" stroke-width="1.5"></path><path d="M1563.11 674.88L1406.61 551.54" stroke="rgba(35, 100, 170, 1)" stroke-width="1.5"></path><path d="M1563.11 674.88L1281.93 704.92" stroke="rgba(35, 100, 170, 1)" stroke-width="1.5"></path><path d="M1608.49 978.57L1608.49 978.57" stroke="rgba(35, 100, 170, 1)" stroke-width="1.5"></path><path d="M1608.49 978.57L1563.11 674.88" stroke="rgba(35, 100, 170, 1)" stroke-width="1.5"></path><path d="M1608.49 978.57L1297.19 851.88" stroke="rgba(35, 100, 170, 1)" stroke-width="1.5"></path><circle r="5" cx="-86.15" cy="821.74" fill="rgba(35, 100, 170, 1)"></circle><circle r="5" cx="-64.72" cy="970.71" fill="rgba(35, 100, 170, 1)"></circle><circle r="5" cx="111.72" cy="644.22" fill="rgba(35, 100, 170, 1)"></circle><circle r="5" cx="56.77" cy="828.92" fill="rgba(35, 100, 170, 1)"></circle><circle r="5" cx="91.23" cy="946.96" fill="rgba(35, 100, 170, 1)"></circle><circle r="5" cx="253.45" cy="692.07" fill="rgba(35, 100, 170, 1)"></circle><circle r="5" cx="234.31" cy="845.72" fill="rgba(35, 100, 170, 1)"></circle><circle r="5" cx="197.5" cy="957.5" fill="rgba(35, 100, 170, 1)"></circle><circle r="5" cx="412.02" cy="703.04" fill="rgba(35, 100, 170, 1)"></circle><circle r="5" cx="382.88" cy="1008.51" fill="rgba(35, 100, 170, 1)"></circle><circle r="5" cx="526.4" cy="488.1" fill="rgba(35, 100, 170, 1)"></circle><circle r="5" cx="503.65" cy="664.11" fill="rgba(35, 100, 170, 1)"></circle><circle r="5" cx="511.56" cy="824.08" fill="rgba(35, 100, 170, 1)"></circle><circle r="5" cx="496.56" cy="953.75" fill="rgba(35, 100, 170, 1)"></circle><circle r="5" cx="668.18" cy="391.72" fill="rgba(35, 100, 170, 1)"></circle><circle r="5" cx="707.23" cy="509.11" fill="rgba(35, 100, 170, 1)"></circle><circle r="5" cx="702.57" cy="637.73" fill="rgba(35, 100, 170, 1)"></circle><circle r="5" cx="660.16" cy="794.55" fill="rgba(35, 100, 170, 1)"></circle><circle r="5" cx="658.03" cy="976.94" fill="rgba(35, 100, 170, 1)"></circle><circle r="5" cx="847.31" cy="-42.22" fill="rgba(35, 100, 170, 1)"></circle><circle r="5" cx="850.99" cy="82.42" fill="rgba(35, 100, 170, 1)"></circle><circle r="5" cx="856.83" cy="221.03" fill="rgba(35, 100, 170, 1)"></circle><circle r="5" cx="807.06" cy="512.47" fill="rgba(35, 100, 170, 1)"></circle><circle r="5" cx="791.5" cy="701.3" fill="rgba(35, 100, 170, 1)"></circle><circle r="5" cx="810.71" cy="839.64" fill="rgba(35, 100, 170, 1)"></circle><circle r="5" cx="851.26" cy="973.5" fill="rgba(35, 100, 170, 1)"></circle><circle r="5" cx="986.46" cy="-58.33" fill="rgba(35, 100, 170, 1)"></circle><circle r="5" cx="986.74" cy="43.93" fill="rgba(35, 100, 170, 1)"></circle><circle r="5" cx="943.57" cy="243.34" fill="rgba(35, 100, 170, 1)"></circle><circle r="5" cx="997.92" cy="390.11" fill="rgba(35, 100, 170, 1)"></circle><circle r="5" cx="965.21" cy="708.41" fill="rgba(35, 100, 170, 1)"></circle><circle r="5" cx="976.38" cy="816.44" fill="rgba(35, 100, 170, 1)"></circle><circle r="5" cx="942.23" cy="1001.69" fill="rgba(35, 100, 170, 1)"></circle><circle r="5" cx="1097.25" cy="-72.25" fill="rgba(35, 100, 170, 1)"></circle><circle r="5" cx="1138.3" cy="93.45" fill="rgba(35, 100, 170, 1)"></circle><circle r="5" cx="1150.9" cy="255.09" fill="rgba(35, 100, 170, 1)"></circle><circle r="5" cx="1120.09" cy="411.25" fill="rgba(35, 100, 170, 1)"></circle><circle r="5" cx="1088.47" cy="512.28" fill="rgba(35, 100, 170, 1)"></circle><circle r="5" cx="1099.07" cy="655.59" fill="rgba(35, 100, 170, 1)"></circle><circle r="5" cx="1110.66" cy="861.19" fill="rgba(35, 100, 170, 1)"></circle><circle r="5" cx="1145.89" cy="968.93" fill="rgba(35, 100, 170, 1)"></circle><circle r="5" cx="1260.51" cy="-107.05" fill="rgba(35, 100, 170, 1)"></circle><circle r="5" cx="1265.87" cy="43.61" fill="rgba(35, 100, 170, 1)"></circle><circle r="5" cx="1238.37" cy="259.35" fill="rgba(35, 100, 170, 1)"></circle><circle r="5" cx="1262.55" cy="342.24" fill="rgba(35, 100, 170, 1)"></circle><circle r="5" cx="1273.83" cy="552.52" fill="rgba(35, 100, 170, 1)"></circle><circle r="5" cx="1281.93" cy="704.92" fill="rgba(35, 100, 170, 1)"></circle><circle r="5" cx="1297.19" cy="851.88" fill="rgba(35, 100, 170, 1)"></circle><circle r="5" cx="1269.9" cy="983.32" fill="rgba(35, 100, 170, 1)"></circle><circle r="5" cx="1438.16" cy="-78" fill="rgba(35, 100, 170, 1)"></circle><circle r="5" cx="1459.88" cy="92.23" fill="rgba(35, 100, 170, 1)"></circle><circle r="5" cx="1406.26" cy="251.11" fill="rgba(35, 100, 170, 1)"></circle><circle r="5" cx="1416.3" cy="368.84" fill="rgba(35, 100, 170, 1)"></circle><circle r="5" cx="1406.61" cy="551.54" fill="rgba(35, 100, 170, 1)"></circle><circle r="5" cx="1399.36" cy="655.49" fill="rgba(35, 100, 170, 1)"></circle><circle r="5" cx="1423.16" cy="944.59" fill="rgba(35, 100, 170, 1)"></circle><circle r="5" cx="1562.76" cy="-55.84" fill="rgba(35, 100, 170, 1)"></circle><circle r="5" cx="1593.07" cy="108.56" fill="rgba(35, 100, 170, 1)"></circle><circle r="5" cx="1557.18" cy="222.89" fill="rgba(35, 100, 170, 1)"></circle><circle r="5" cx="1568.42" cy="501.25" fill="rgba(35, 100, 170, 1)"></circle><circle r="5" cx="1563.11" cy="674.88" fill="rgba(35, 100, 170, 1)"></circle><circle r="5" cx="1608.49" cy="978.57" fill="rgba(35, 100, 170, 1)"></circle><path d="M966.57 381.17L966.57 381.17" stroke="hsl(211.29999999999995, 100%, 65%)" stroke-width="1.5"></path><path d="M966.57 381.17L1106.36 349.13" stroke="hsl(211.29999999999995, 100%, 65%)" stroke-width="1.5"></path><path d="M966.57 381.17L948.08 533.81" stroke="hsl(211.29999999999995, 100%, 65%)" stroke-width="1.5"></path><path d="M966.57 381.17L1149.41 260.4" stroke="hsl(211.29999999999995, 100%, 65%)" stroke-width="1.5"></path><path d="M966.57 381.17L1143.5 525.42" stroke="hsl(211.29999999999995, 100%, 65%)" stroke-width="1.5"></path><path d="M1149.41 260.4L1149.41 260.4" stroke="hsl(211.29999999999995, 100%, 65%)" stroke-width="1.5"></path><path d="M1149.41 260.4L1106.36 349.13" stroke="hsl(211.29999999999995, 100%, 65%)" stroke-width="1.5"></path><path d="M1149.41 260.4L1157.31 101.82" stroke="hsl(211.29999999999995, 100%, 65%)" stroke-width="1.5"></path><path d="M1100.67 796.99L1100.67 796.99" stroke="hsl(211.29999999999995, 100%, 65%)" stroke-width="1.5"></path><path d="M1100.67 796.99L1121.49 700.49" stroke="hsl(211.29999999999995, 100%, 65%)" stroke-width="1.5"></path><path d="M1100.67 796.99L954.59 790.95" stroke="hsl(211.29999999999995, 100%, 65%)" stroke-width="1.5"></path><path d="M1100.67 796.99L992.83 648.94" stroke="hsl(211.29999999999995, 100%, 65%)" stroke-width="1.5"></path><path d="M1100.67 796.99L1280.04 861.1" stroke="hsl(211.29999999999995, 100%, 65%)" stroke-width="1.5"></path><path d="M1279.62 77.87L1279.62 77.87" stroke="hsl(211.29999999999995, 100%, 65%)" stroke-width="1.5"></path><path d="M1279.62 77.87L1157.31 101.82" stroke="hsl(211.29999999999995, 100%, 65%)" stroke-width="1.5"></path><path d="M1279.62 77.87L1312.29 241.57" stroke="hsl(211.29999999999995, 100%, 65%)" stroke-width="1.5"></path><path d="M1279.62 77.87L1457.43 80.19" stroke="hsl(211.29999999999995, 100%, 65%)" stroke-width="1.5"></path><path d="M1279.62 77.87L1439.81 216.13" stroke="hsl(211.29999999999995, 100%, 65%)" stroke-width="1.5"></path><path d="M1312.29 241.57L1312.29 241.57" stroke="hsl(211.29999999999995, 100%, 65%)" stroke-width="1.5"></path><path d="M1312.29 241.57L1439.81 216.13" stroke="hsl(211.29999999999995, 100%, 65%)" stroke-width="1.5"></path><path d="M1312.29 241.57L1149.41 260.4" stroke="hsl(211.29999999999995, 100%, 65%)" stroke-width="1.5"></path><path d="M1287.94 698.76L1287.94 698.76" stroke="hsl(211.29999999999995, 100%, 65%)" stroke-width="1.5"></path><path d="M1287.94 698.76L1412.14 691.64" stroke="hsl(211.29999999999995, 100%, 65%)" stroke-width="1.5"></path><path d="M1287.94 698.76L1280.04 861.1" stroke="hsl(211.29999999999995, 100%, 65%)" stroke-width="1.5"></path><path d="M1287.94 698.76L1121.49 700.49" stroke="hsl(211.29999999999995, 100%, 65%)" stroke-width="1.5"></path><path d="M1287.94 698.76L1306.8 508.37" stroke="hsl(211.29999999999995, 100%, 65%)" stroke-width="1.5"></path><path d="M1435.04 1011.91L1435.04 1011.91" stroke="hsl(211.29999999999995, 100%, 65%)" stroke-width="1.5"></path><path d="M1435.04 1011.91L1306.48 974.25" stroke="hsl(211.29999999999995, 100%, 65%)" stroke-width="1.5"></path><path d="M1435.04 1011.91L1583.36 1000" stroke="hsl(211.29999999999995, 100%, 65%)" stroke-width="1.5"></path><path d="M1435.04 1011.91L1447.14 841.14" stroke="hsl(211.29999999999995, 100%, 65%)" stroke-width="1.5"></path><path d="M1435.04 1011.91L1280.04 861.1" stroke="hsl(211.29999999999995, 100%, 65%)" stroke-width="1.5"></path><path d="M1435.04 1011.91L1159.61 978.81" stroke="hsl(211.29999999999995, 100%, 65%)" stroke-width="1.5"></path><path d="M1435.04 1011.91L1606.59 788.13" stroke="hsl(211.29999999999995, 100%, 65%)" stroke-width="1.5"></path><path d="M-87.31 795.85L-87.31 795.85" stroke="hsl(211.29999999999995, 100%, 65%)" stroke-width="1.5"></path><path d="M-87.31 795.85L65.21 832.91" stroke="hsl(211.29999999999995, 100%, 65%)" stroke-width="1.5"></path><path d="M-87.31 795.85L-72.99 981.63" stroke="hsl(211.29999999999995, 100%, 65%)" stroke-width="1.5"></path><path d="M-87.31 795.85L79.17 977.45" stroke="hsl(211.29999999999995, 100%, 65%)" stroke-width="1.5"></path><path d="M-72.99 981.63L-72.99 981.63" stroke="hsl(211.29999999999995, 100%, 65%)" stroke-width="1.5"></path><path d="M-72.99 981.63L79.17 977.45" stroke="hsl(211.29999999999995, 100%, 65%)" stroke-width="1.5"></path><path d="M-72.99 981.63L65.21 832.91" stroke="hsl(211.29999999999995, 100%, 65%)" stroke-width="1.5"></path><path d="M-72.99 981.63L239.51 814.67" stroke="hsl(211.29999999999995, 100%, 65%)" stroke-width="1.5"></path><path d="M-72.99 981.63L390.16 947.91" stroke="hsl(211.29999999999995, 100%, 65%)" stroke-width="1.5"></path><path d="M65.21 832.91L65.21 832.91" stroke="hsl(211.29999999999995, 100%, 65%)" stroke-width="1.5"></path><path d="M65.21 832.91L79.17 977.45" stroke="hsl(211.29999999999995, 100%, 65%)" stroke-width="1.5"></path><path d="M65.21 832.91L239.51 814.67" stroke="hsl(211.29999999999995, 100%, 65%)" stroke-width="1.5"></path><path d="M65.21 832.91L380.62 862.29" stroke="hsl(211.29999999999995, 100%, 65%)" stroke-width="1.5"></path><path d="M79.17 977.45L79.17 977.45" stroke="hsl(211.29999999999995, 100%, 65%)" stroke-width="1.5"></path><path d="M239.51 814.67L239.51 814.67" stroke="hsl(211.29999999999995, 100%, 65%)" stroke-width="1.5"></path><path d="M239.51 814.67L380.62 862.29" stroke="hsl(211.29999999999995, 100%, 65%)" stroke-width="1.5"></path><path d="M239.51 814.67L363.84 707.66" stroke="hsl(211.29999999999995, 100%, 65%)" stroke-width="1.5"></path><path d="M239.51 814.67L390.16 947.91" stroke="hsl(211.29999999999995, 100%, 65%)" stroke-width="1.5"></path><path d="M363.84 707.66L363.84 707.66" stroke="hsl(211.29999999999995, 100%, 65%)" stroke-width="1.5"></path><path d="M363.84 707.66L380.62 862.29" stroke="hsl(211.29999999999995, 100%, 65%)" stroke-width="1.5"></path><path d="M363.84 707.66L491.61 832.04" stroke="hsl(211.29999999999995, 100%, 65%)" stroke-width="1.5"></path><path d="M363.84 707.66L539.53 657.78" stroke="hsl(211.29999999999995, 100%, 65%)" stroke-width="1.5"></path><path d="M363.84 707.66L390.16 947.91" stroke="hsl(211.29999999999995, 100%, 65%)" stroke-width="1.5"></path><path d="M363.84 707.66L515.45 971.31" stroke="hsl(211.29999999999995, 100%, 65%)" stroke-width="1.5"></path><path d="M380.62 862.29L380.62 862.29" stroke="hsl(211.29999999999995, 100%, 65%)" stroke-width="1.5"></path><path d="M380.62 862.29L390.16 947.91" stroke="hsl(211.29999999999995, 100%, 65%)" stroke-width="1.5"></path><path d="M380.62 862.29L491.61 832.04" stroke="hsl(211.29999999999995, 100%, 65%)" stroke-width="1.5"></path><path d="M380.62 862.29L515.45 971.31" stroke="hsl(211.29999999999995, 100%, 65%)" stroke-width="1.5"></path><path d="M390.16 947.91L390.16 947.91" stroke="hsl(211.29999999999995, 100%, 65%)" stroke-width="1.5"></path><path d="M390.16 947.91L515.45 971.31" stroke="hsl(211.29999999999995, 100%, 65%)" stroke-width="1.5"></path><path d="M390.16 947.91L491.61 832.04" stroke="hsl(211.29999999999995, 100%, 65%)" stroke-width="1.5"></path><path d="M539.53 657.78L539.53 657.78" stroke="hsl(211.29999999999995, 100%, 65%)" stroke-width="1.5"></path><path d="M539.53 657.78L669.67 672.41" stroke="hsl(211.29999999999995, 100%, 65%)" stroke-width="1.5"></path><path d="M539.53 657.78L491.61 832.04" stroke="hsl(211.29999999999995, 100%, 65%)" stroke-width="1.5"></path><path d="M491.61 832.04L491.61 832.04" stroke="hsl(211.29999999999995, 100%, 65%)" stroke-width="1.5"></path><path d="M491.61 832.04L515.45 971.31" stroke="hsl(211.29999999999995, 100%, 65%)" stroke-width="1.5"></path><path d="M491.61 832.04L664.32 862.03" stroke="hsl(211.29999999999995, 100%, 65%)" stroke-width="1.5"></path><path d="M515.45 971.31L515.45 971.31" stroke="hsl(211.29999999999995, 100%, 65%)" stroke-width="1.5"></path><path d="M515.45 971.31L671.65 976.04" stroke="hsl(211.29999999999995, 100%, 65%)" stroke-width="1.5"></path><path d="M515.45 971.31L664.32 862.03" stroke="hsl(211.29999999999995, 100%, 65%)" stroke-width="1.5"></path><path d="M515.45 971.31L813.36 980.27" stroke="hsl(211.29999999999995, 100%, 65%)" stroke-width="1.5"></path><path d="M669.67 672.41L669.67 672.41" stroke="hsl(211.29999999999995, 100%, 65%)" stroke-width="1.5"></path><path d="M669.67 672.41L794.63 666.94" stroke="hsl(211.29999999999995, 100%, 65%)" stroke-width="1.5"></path><path d="M664.32 862.03L664.32 862.03" stroke="hsl(211.29999999999995, 100%, 65%)" stroke-width="1.5"></path><path d="M664.32 862.03L671.65 976.04" stroke="hsl(211.29999999999995, 100%, 65%)" stroke-width="1.5"></path><path d="M664.32 862.03L837.34 806.48" stroke="hsl(211.29999999999995, 100%, 65%)" stroke-width="1.5"></path><path d="M664.32 862.03L669.67 672.41" stroke="hsl(211.29999999999995, 100%, 65%)" stroke-width="1.5"></path><path d="M671.65 976.04L671.65 976.04" stroke="hsl(211.29999999999995, 100%, 65%)" stroke-width="1.5"></path><path d="M671.65 976.04L813.36 980.27" stroke="hsl(211.29999999999995, 100%, 65%)" stroke-width="1.5"></path><path d="M671.65 976.04L491.61 832.04" stroke="hsl(211.29999999999995, 100%, 65%)" stroke-width="1.5"></path><path d="M671.65 976.04L837.34 806.48" stroke="hsl(211.29999999999995, 100%, 65%)" stroke-width="1.5"></path><path d="M794.63 666.94L794.63 666.94" stroke="hsl(211.29999999999995, 100%, 65%)" stroke-width="1.5"></path><path d="M794.63 666.94L837.34 806.48" stroke="hsl(211.29999999999995, 100%, 65%)" stroke-width="1.5"></path><path d="M837.34 806.48L837.34 806.48" stroke="hsl(211.29999999999995, 100%, 65%)" stroke-width="1.5"></path><path d="M837.34 806.48L954.59 790.95" stroke="hsl(211.29999999999995, 100%, 65%)" stroke-width="1.5"></path><path d="M837.34 806.48L813.36 980.27" stroke="hsl(211.29999999999995, 100%, 65%)" stroke-width="1.5"></path><path d="M837.34 806.48L669.67 672.41" stroke="hsl(211.29999999999995, 100%, 65%)" stroke-width="1.5"></path><path d="M813.36 980.27L813.36 980.27" stroke="hsl(211.29999999999995, 100%, 65%)" stroke-width="1.5"></path><path d="M813.36 980.27L1001.87 972.13" stroke="hsl(211.29999999999995, 100%, 65%)" stroke-width="1.5"></path><path d="M813.36 980.27L664.32 862.03" stroke="hsl(211.29999999999995, 100%, 65%)" stroke-width="1.5"></path><path d="M813.36 980.27L954.59 790.95" stroke="hsl(211.29999999999995, 100%, 65%)" stroke-width="1.5"></path><path d="M948.08 533.81L948.08 533.81" stroke="hsl(211.29999999999995, 100%, 65%)" stroke-width="1.5"></path><path d="M948.08 533.81L992.83 648.94" stroke="hsl(211.29999999999995, 100%, 65%)" stroke-width="1.5"></path><path d="M992.83 648.94L992.83 648.94" stroke="hsl(211.29999999999995, 100%, 65%)" stroke-width="1.5"></path><path d="M992.83 648.94L1121.49 700.49" stroke="hsl(211.29999999999995, 100%, 65%)" stroke-width="1.5"></path><path d="M954.59 790.95L954.59 790.95" stroke="hsl(211.29999999999995, 100%, 65%)" stroke-width="1.5"></path><path d="M954.59 790.95L992.83 648.94" stroke="hsl(211.29999999999995, 100%, 65%)" stroke-width="1.5"></path><path d="M954.59 790.95L1001.87 972.13" stroke="hsl(211.29999999999995, 100%, 65%)" stroke-width="1.5"></path><path d="M954.59 790.95L1121.49 700.49" stroke="hsl(211.29999999999995, 100%, 65%)" stroke-width="1.5"></path><path d="M954.59 790.95L794.63 666.94" stroke="hsl(211.29999999999995, 100%, 65%)" stroke-width="1.5"></path><path d="M1001.87 972.13L1001.87 972.13" stroke="hsl(211.29999999999995, 100%, 65%)" stroke-width="1.5"></path><path d="M1001.87 972.13L1159.61 978.81" stroke="hsl(211.29999999999995, 100%, 65%)" stroke-width="1.5"></path><path d="M1001.87 972.13L1100.67 796.99" stroke="hsl(211.29999999999995, 100%, 65%)" stroke-width="1.5"></path><path d="M1001.87 972.13L837.34 806.48" stroke="hsl(211.29999999999995, 100%, 65%)" stroke-width="1.5"></path><path d="M1001.87 972.13L1121.49 700.49" stroke="hsl(211.29999999999995, 100%, 65%)" stroke-width="1.5"></path><path d="M1157.31 101.82L1157.31 101.82" stroke="hsl(211.29999999999995, 100%, 65%)" stroke-width="1.5"></path><path d="M1157.31 101.82L1312.29 241.57" stroke="hsl(211.29999999999995, 100%, 65%)" stroke-width="1.5"></path><path d="M1157.31 101.82L1106.36 349.13" stroke="hsl(211.29999999999995, 100%, 65%)" stroke-width="1.5"></path><path d="M1157.31 101.82L1457.43 80.19" stroke="hsl(211.29999999999995, 100%, 65%)" stroke-width="1.5"></path><path d="M1106.36 349.13L1106.36 349.13" stroke="hsl(211.29999999999995, 100%, 65%)" stroke-width="1.5"></path><path d="M1106.36 349.13L1246.16 399.8" stroke="hsl(211.29999999999995, 100%, 65%)" stroke-width="1.5"></path><path d="M1106.36 349.13L1143.5 525.42" stroke="hsl(211.29999999999995, 100%, 65%)" stroke-width="1.5"></path><path d="M1106.36 349.13L1312.29 241.57" stroke="hsl(211.29999999999995, 100%, 65%)" stroke-width="1.5"></path><path d="M1143.5 525.42L1143.5 525.42" stroke="hsl(211.29999999999995, 100%, 65%)" stroke-width="1.5"></path><path d="M1143.5 525.42L1246.16 399.8" stroke="hsl(211.29999999999995, 100%, 65%)" stroke-width="1.5"></path><path d="M1143.5 525.42L1306.8 508.37" stroke="hsl(211.29999999999995, 100%, 65%)" stroke-width="1.5"></path><path d="M1143.5 525.42L1121.49 700.49" stroke="hsl(211.29999999999995, 100%, 65%)" stroke-width="1.5"></path><path d="M1143.5 525.42L992.83 648.94" stroke="hsl(211.29999999999995, 100%, 65%)" stroke-width="1.5"></path><path d="M1143.5 525.42L948.08 533.81" stroke="hsl(211.29999999999995, 100%, 65%)" stroke-width="1.5"></path><path d="M1121.49 700.49L1121.49 700.49" stroke="hsl(211.29999999999995, 100%, 65%)" stroke-width="1.5"></path><path d="M1121.49 700.49L1280.04 861.1" stroke="hsl(211.29999999999995, 100%, 65%)" stroke-width="1.5"></path><path d="M1159.61 978.81L1159.61 978.81" stroke="hsl(211.29999999999995, 100%, 65%)" stroke-width="1.5"></path><path d="M1159.61 978.81L1306.48 974.25" stroke="hsl(211.29999999999995, 100%, 65%)" stroke-width="1.5"></path><path d="M1159.61 978.81L1280.04 861.1" stroke="hsl(211.29999999999995, 100%, 65%)" stroke-width="1.5"></path><path d="M1246.16 399.8L1246.16 399.8" stroke="hsl(211.29999999999995, 100%, 65%)" stroke-width="1.5"></path><path d="M1246.16 399.8L1306.8 508.37" stroke="hsl(211.29999999999995, 100%, 65%)" stroke-width="1.5"></path><path d="M1246.16 399.8L1149.41 260.4" stroke="hsl(211.29999999999995, 100%, 65%)" stroke-width="1.5"></path><path d="M1246.16 399.8L1312.29 241.57" stroke="hsl(211.29999999999995, 100%, 65%)" stroke-width="1.5"></path><path d="M1246.16 399.8L1391.52 521.19" stroke="hsl(211.29999999999995, 100%, 65%)" stroke-width="1.5"></path><path d="M1306.8 508.37L1306.8 508.37" stroke="hsl(211.29999999999995, 100%, 65%)" stroke-width="1.5"></path><path d="M1306.8 508.37L1391.52 521.19" stroke="hsl(211.29999999999995, 100%, 65%)" stroke-width="1.5"></path><path d="M1306.8 508.37L1450.88 387.9" stroke="hsl(211.29999999999995, 100%, 65%)" stroke-width="1.5"></path><path d="M1280.04 861.1L1280.04 861.1" stroke="hsl(211.29999999999995, 100%, 65%)" stroke-width="1.5"></path><path d="M1280.04 861.1L1306.48 974.25" stroke="hsl(211.29999999999995, 100%, 65%)" stroke-width="1.5"></path><path d="M1280.04 861.1L1447.14 841.14" stroke="hsl(211.29999999999995, 100%, 65%)" stroke-width="1.5"></path><path d="M1306.48 974.25L1306.48 974.25" stroke="hsl(211.29999999999995, 100%, 65%)" stroke-width="1.5"></path><path d="M1306.48 974.25L1447.14 841.14" stroke="hsl(211.29999999999995, 100%, 65%)" stroke-width="1.5"></path><path d="M1420.98 -96.1L1420.98 -96.1" stroke="hsl(211.29999999999995, 100%, 65%)" stroke-width="1.5"></path><path d="M1420.98 -96.1L1560.29 -71.09" stroke="hsl(211.29999999999995, 100%, 65%)" stroke-width="1.5"></path><path d="M1420.98 -96.1L1457.43 80.19" stroke="hsl(211.29999999999995, 100%, 65%)" stroke-width="1.5"></path><path d="M1457.43 80.19L1457.43 80.19" stroke="hsl(211.29999999999995, 100%, 65%)" stroke-width="1.5"></path><path d="M1457.43 80.19L1563.1 49.58" stroke="hsl(211.29999999999995, 100%, 65%)" stroke-width="1.5"></path><path d="M1457.43 80.19L1439.81 216.13" stroke="hsl(211.29999999999995, 100%, 65%)" stroke-width="1.5"></path><path d="M1439.81 216.13L1439.81 216.13" stroke="hsl(211.29999999999995, 100%, 65%)" stroke-width="1.5"></path><path d="M1439.81 216.13L1569.38 223.14" stroke="hsl(211.29999999999995, 100%, 65%)" stroke-width="1.5"></path><path d="M1439.81 216.13L1543.68 346.93" stroke="hsl(211.29999999999995, 100%, 65%)" stroke-width="1.5"></path><path d="M1439.81 216.13L1450.88 387.9" stroke="hsl(211.29999999999995, 100%, 65%)" stroke-width="1.5"></path><path d="M1439.81 216.13L1563.1 49.58" stroke="hsl(211.29999999999995, 100%, 65%)" stroke-width="1.5"></path><path d="M1450.88 387.9L1450.88 387.9" stroke="hsl(211.29999999999995, 100%, 65%)" stroke-width="1.5"></path><path d="M1450.88 387.9L1543.68 346.93" stroke="hsl(211.29999999999995, 100%, 65%)" stroke-width="1.5"></path><path d="M1450.88 387.9L1391.52 521.19" stroke="hsl(211.29999999999995, 100%, 65%)" stroke-width="1.5"></path><path d="M1450.88 387.9L1607.51 508.01" stroke="hsl(211.29999999999995, 100%, 65%)" stroke-width="1.5"></path><path d="M1450.88 387.9L1312.29 241.57" stroke="hsl(211.29999999999995, 100%, 65%)" stroke-width="1.5"></path><path d="M1391.52 521.19L1391.52 521.19" stroke="hsl(211.29999999999995, 100%, 65%)" stroke-width="1.5"></path><path d="M1391.52 521.19L1412.14 691.64" stroke="hsl(211.29999999999995, 100%, 65%)" stroke-width="1.5"></path><path d="M1412.14 691.64L1412.14 691.64" stroke="hsl(211.29999999999995, 100%, 65%)" stroke-width="1.5"></path><path d="M1412.14 691.64L1563.92 696.91" stroke="hsl(211.29999999999995, 100%, 65%)" stroke-width="1.5"></path><path d="M1412.14 691.64L1447.14 841.14" stroke="hsl(211.29999999999995, 100%, 65%)" stroke-width="1.5"></path><path d="M1412.14 691.64L1306.8 508.37" stroke="hsl(211.29999999999995, 100%, 65%)" stroke-width="1.5"></path><path d="M1447.14 841.14L1447.14 841.14" stroke="hsl(211.29999999999995, 100%, 65%)" stroke-width="1.5"></path><path d="M1447.14 841.14L1606.59 788.13" stroke="hsl(211.29999999999995, 100%, 65%)" stroke-width="1.5"></path><path d="M1447.14 841.14L1563.92 696.91" stroke="hsl(211.29999999999995, 100%, 65%)" stroke-width="1.5"></path><path d="M1560.29 -71.09L1560.29 -71.09" stroke="hsl(211.29999999999995, 100%, 65%)" stroke-width="1.5"></path><path d="M1560.29 -71.09L1563.1 49.58" stroke="hsl(211.29999999999995, 100%, 65%)" stroke-width="1.5"></path><path d="M1560.29 -71.09L1457.43 80.19" stroke="hsl(211.29999999999995, 100%, 65%)" stroke-width="1.5"></path><path d="M1560.29 -71.09L1569.38 223.14" stroke="hsl(211.29999999999995, 100%, 65%)" stroke-width="1.5"></path><path d="M1563.1 49.58L1563.1 49.58" stroke="hsl(211.29999999999995, 100%, 65%)" stroke-width="1.5"></path><path d="M1563.1 49.58L1569.38 223.14" stroke="hsl(211.29999999999995, 100%, 65%)" stroke-width="1.5"></path><path d="M1569.38 223.14L1569.38 223.14" stroke="hsl(211.29999999999995, 100%, 65%)" stroke-width="1.5"></path><path d="M1569.38 223.14L1543.68 346.93" stroke="hsl(211.29999999999995, 100%, 65%)" stroke-width="1.5"></path><path d="M1569.38 223.14L1457.43 80.19" stroke="hsl(211.29999999999995, 100%, 65%)" stroke-width="1.5"></path><path d="M1569.38 223.14L1450.88 387.9" stroke="hsl(211.29999999999995, 100%, 65%)" stroke-width="1.5"></path><path d="M1543.68 346.93L1543.68 346.93" stroke="hsl(211.29999999999995, 100%, 65%)" stroke-width="1.5"></path><path d="M1607.51 508.01L1607.51 508.01" stroke="hsl(211.29999999999995, 100%, 65%)" stroke-width="1.5"></path><path d="M1607.51 508.01L1543.68 346.93" stroke="hsl(211.29999999999995, 100%, 65%)" stroke-width="1.5"></path><path d="M1607.51 508.01L1563.92 696.91" stroke="hsl(211.29999999999995, 100%, 65%)" stroke-width="1.5"></path><path d="M1607.51 508.01L1391.52 521.19" stroke="hsl(211.29999999999995, 100%, 65%)" stroke-width="1.5"></path><path d="M1607.51 508.01L1412.14 691.64" stroke="hsl(211.29999999999995, 100%, 65%)" stroke-width="1.5"></path><path d="M1563.92 696.91L1563.92 696.91" stroke="hsl(211.29999999999995, 100%, 65%)" stroke-width="1.5"></path><path d="M1563.92 696.91L1606.59 788.13" stroke="hsl(211.29999999999995, 100%, 65%)" stroke-width="1.5"></path><path d="M1563.92 696.91L1391.52 521.19" stroke="hsl(211.29999999999995, 100%, 65%)" stroke-width="1.5"></path><path d="M1606.59 788.13L1606.59 788.13" stroke="hsl(211.29999999999995, 100%, 65%)" stroke-width="1.5"></path><path d="M1606.59 788.13L1583.36 1000" stroke="hsl(211.29999999999995, 100%, 65%)" stroke-width="1.5"></path><path d="M1606.59 788.13L1412.14 691.64" stroke="hsl(211.29999999999995, 100%, 65%)" stroke-width="1.5"></path><path d="M1606.59 788.13L1607.51 508.01" stroke="hsl(211.29999999999995, 100%, 65%)" stroke-width="1.5"></path><path d="M1583.36 1000L1583.36 1000" stroke="hsl(211.29999999999995, 100%, 65%)" stroke-width="1.5"></path><circle r="25" cx="966.57" cy="381.17" fill="url(#SvgjsRadialGradient1235)"></circle><circle r="25" cx="1149.41" cy="260.4" fill="url(#SvgjsRadialGradient1235)"></circle><circle r="25" cx="1100.67" cy="796.99" fill="url(#SvgjsRadialGradient1235)"></circle><circle r="25" cx="1279.62" cy="77.87" fill="url(#SvgjsRadialGradient1235)"></circle><circle r="25" cx="1312.29" cy="241.57" fill="url(#SvgjsRadialGradient1235)"></circle><circle r="25" cx="1287.94" cy="698.76" fill="url(#SvgjsRadialGradient1235)"></circle><circle r="25" cx="1435.04" cy="1011.91" fill="url(#SvgjsRadialGradient1235)"></circle><circle r="5" cx="-87.31" cy="795.85" fill="#80bdff"></circle><circle r="5" cx="-72.99" cy="981.63" fill="#80bdff"></circle><circle r="5" cx="65.21" cy="832.91" fill="#80bdff"></circle><circle r="5" cx="79.17" cy="977.45" fill="#80bdff"></circle><circle r="5" cx="239.51" cy="814.67" fill="#80bdff"></circle><circle r="5" cx="363.84" cy="707.66" fill="#80bdff"></circle><circle r="5" cx="380.62" cy="862.29" fill="#80bdff"></circle><circle r="5" cx="390.16" cy="947.91" fill="#80bdff"></circle><circle r="5" cx="539.53" cy="657.78" fill="#80bdff"></circle><circle r="5" cx="491.61" cy="832.04" fill="#80bdff"></circle><circle r="5" cx="515.45" cy="971.31" fill="#80bdff"></circle><circle r="5" cx="669.67" cy="672.41" fill="#80bdff"></circle><circle r="5" cx="664.32" cy="862.03" fill="#80bdff"></circle><circle r="5" cx="671.65" cy="976.04" fill="#80bdff"></circle><circle r="5" cx="794.63" cy="666.94" fill="#80bdff"></circle><circle r="5" cx="837.34" cy="806.48" fill="#80bdff"></circle><circle r="5" cx="813.36" cy="980.27" fill="#80bdff"></circle><circle r="5" cx="948.08" cy="533.81" fill="#80bdff"></circle><circle r="5" cx="992.83" cy="648.94" fill="#80bdff"></circle><circle r="5" cx="954.59" cy="790.95" fill="#80bdff"></circle><circle r="5" cx="1001.87" cy="972.13" fill="#80bdff"></circle><circle r="5" cx="1157.31" cy="101.82" fill="#80bdff"></circle><circle r="5" cx="1106.36" cy="349.13" fill="#80bdff"></circle><circle r="5" cx="1143.5" cy="525.42" fill="#80bdff"></circle><circle r="5" cx="1121.49" cy="700.49" fill="#80bdff"></circle><circle r="5" cx="1159.61" cy="978.81" fill="#80bdff"></circle><circle r="5" cx="1246.16" cy="399.8" fill="#80bdff"></circle><circle r="5" cx="1306.8" cy="508.37" fill="#80bdff"></circle><circle r="5" cx="1280.04" cy="861.1" fill="#80bdff"></circle><circle r="5" cx="1306.48" cy="974.25" fill="#80bdff"></circle><circle r="5" cx="1420.98" cy="-96.1" fill="#80bdff"></circle><circle r="5" cx="1457.43" cy="80.19" fill="#80bdff"></circle><circle r="5" cx="1439.81" cy="216.13" fill="#80bdff"></circle><circle r="5" cx="1450.88" cy="387.9" fill="#80bdff"></circle><circle r="5" cx="1391.52" cy="521.19" fill="#80bdff"></circle><circle r="5" cx="1412.14" cy="691.64" fill="#80bdff"></circle><circle r="5" cx="1447.14" cy="841.14" fill="#80bdff"></circle><circle r="5" cx="1560.29" cy="-71.09" fill="#80bdff"></circle><circle r="5" cx="1563.1" cy="49.58" fill="#80bdff"></circle><circle r="5" cx="1569.38" cy="223.14" fill="#80bdff"></circle><circle r="5" cx="1543.68" cy="346.93" fill="#80bdff"></circle><circle r="5" cx="1607.51" cy="508.01" fill="#80bdff"></circle><circle r="5" cx="1563.92" cy="696.91" fill="#80bdff"></circle><circle r="5" cx="1606.59" cy="788.13" fill="#80bdff"></circle><circle r="5" cx="1583.36" cy="1000" fill="#80bdff"></circle></g><defs><mask id="SvgjsMask1234"><rect width="1400" height="900" fill="#ffffff"></rect></mask><radialGradient id="SvgjsRadialGradient1235"><stop stop-color="#ffffff" offset="0.1"></stop><stop stop-color="rgba(0, 122, 255, 1)" offset="0.2"></stop><stop stop-color="rgba(0, 122, 255, 0)" offset="1"></stop></radialGradient></defs></svg>